<svg xmlns="http://www.w3.org/2000/svg" viewBox="0 0 762.27 847.17"><defs><style>.cls-1{fill:#231f20;}.cls-2{fill:none;stroke:#231f20;stroke-miterlimit:10;stroke-width:12px;}</style></defs><title>KurdspexV1</title><g id="Layer_7" data-name="Layer 7"><path class="cls-1" d="M769.41,314.82,525.66,174.1a51.31,51.31,0,0,0-51.32,0L230.59,314.82a51.33,51.33,0,0,0-25.66,44.45V640.73a51.33,51.33,0,0,0,25.66,44.45L474.34,825.9a51.31,51.31,0,0,0,51.32,0L769.41,685.18a51.33,51.33,0,0,0,25.66-44.45V359.27A51.33,51.33,0,0,0,769.41,314.82ZM500.6,435.08l52.3-70-22.5-18.82a6.61,6.61,0,0,1,3.06-11.57l115.93-21.18a6.61,6.61,0,0,1,7.8,6.52l-.38,117.86A6.61,6.61,0,0,1,646,442.94l-26.65-22.29L558,505.82a6.61,6.61,0,0,1-10.67.08L500.59,443A6.62,6.62,0,0,1,500.6,435.08ZM659.2,712.67H561.9a6.6,6.6,0,0,1-5.47-2.91l-77.8-114.93a6.61,6.61,0,0,0-12.08,3.42L465,634.75v71.31a6.61,6.61,0,0,1-6.61,6.61H373.92a6.61,6.61,0,0,1-6.61-6.61V293.94a6.61,6.61,0,0,1,6.61-6.61H458.4a6.61,6.61,0,0,1,6.61,6.61V413L664.64,702.31A6.61,6.61,0,0,1,659.2,712.67Z" transform="translate(-118.86 -76.41)"/><path class="cls-2" d="M769.41,314.82,525.66,174.1a51.31,51.31,0,0,0-51.32,0L230.59,314.82a51.33,51.33,0,0,0-25.66,44.45V640.73a51.33,51.33,0,0,0,25.66,44.45L474.34,825.9a51.31,51.31,0,0,0,51.32,0L769.41,685.18a51.33,51.33,0,0,0,25.66-44.45V359.27A51.33,51.33,0,0,0,769.41,314.82Z" transform="translate(-118.86 -76.41)"/></g><g id="Layer_8" data-name="Layer 8"><circle class="cls-1" cx="600.64" cy="677.5" r="12.6"/><circle class="cls-1" cx="192.01" cy="695.18" r="12.6"/><circle class="cls-1" cx="51.37" cy="447.52" r="12.6"/><circle class="cls-1" cx="12.6" cy="391.44" r="12.6"/><circle class="cls-1" cx="51.37" cy="272.63" r="12.6"/><circle class="cls-1" cx="140.79" cy="135.1" r="12.6"/><circle class="cls-1" cx="749.67" cy="325.37" r="12.6"/><circle class="cls-1" cx="710.9" cy="391.56" r="12.6"/><circle class="cls-1" cx="535.17" cy="132.1" r="12.6"/><circle class="cls-1" cx="296.66" cy="800.13" r="12.6"/><circle class="cls-1" cx="225.83" cy="760.49" r="12.6"/></g><g id="Layer_5" data-name="Layer 5"><path class="cls-1" d="M692.75,223.57" transform="translate(-118.86 -76.41)"/><path class="cls-1" d="M789.07,640.73A45.44,45.44,0,0,1,766.41,680l-116,67,6.35,10.19,115.69-66.8a57.47,57.47,0,0,0,28.66-49.64L799.8,434h-12Z" transform="translate(-118.86 -76.41)"/><polygon class="cls-1" points="527.24 174.54 535.16 165.26 441.44 110.75 435.67 121.28 527.24 174.54"/><path class="cls-1" d="M233.59,680a45.44,45.44,0,0,1-22.66-39.25V405.81h-12V640.73a57.47,57.47,0,0,0,28.66,49.64l27.33,15.76,6.93-9.86Z" transform="translate(-118.86 -76.41)"/><path class="cls-1" d="M210.93,359.27A45.44,45.44,0,0,1,233.59,320l48.84-28.2-7.88-9.31-47,27.12a57.47,57.47,0,0,0-28.66,49.64l.72,25.22h12Z" transform="translate(-118.86 -76.41)"/><path class="cls-1" d="M477.33,179.29a45.5,45.5,0,0,1,45.34,0l21.46,12.4,5.78-10.53L528.67,168.9a57.5,57.5,0,0,0-57.34,0l-164.71,95,8.55,8.92Z" transform="translate(-118.86 -76.41)"/><path class="cls-1" d="M766.41,320a45.44,45.44,0,0,1,22.66,39.25V397h12V359.27a57.47,57.47,0,0,0-28.66-49.64L681.31,257l-7.6,9.47Z" transform="translate(-118.86 -76.41)"/><path class="cls-1" d="M522.67,820.71a45.48,45.48,0,0,1-45.34,0l-166.09-95.9-6.93,9.86,167,96.43a57.55,57.55,0,0,0,57.34,0L615,781.53l-6.35-10.19Z" transform="translate(-118.86 -76.41)"/><path class="cls-1" d="M198.9,700a45.45,45.45,0,0,1-22.67-39.25V560.53h-12V660.76A57.48,57.48,0,0,0,192.9,710.4l80.94,46.74,6.93-9.86Z" transform="translate(-118.86 -76.41)"/><rect class="cls-1" x="45.37" y="329.39" width="12" height="115.79"/><path class="cls-1" d="M522.67,860.77a45.48,45.48,0,0,1-45.34,0l-159.16-91-6.93,9.86,160.09,91.5a57.48,57.48,0,0,0,57.34,0l136-78.53-6.35-10.19Z" transform="translate(-118.86 -76.41)"/><path class="cls-1" d="M477.33,139.23a45.5,45.5,0,0,1,45.34,0l128.12,73.91,8-9.25-130.1-75a57.5,57.5,0,0,0-57.34,0l-155.47,90,7.61,9.47Z" transform="translate(-118.86 -76.41)"/><path class="cls-1" d="M176.23,339.24A45.45,45.45,0,0,1,198.9,300l60.76-35.08-7.88-9.31-58.88,34a57.48,57.48,0,0,0-28.67,49.64v6.19h12Z" transform="translate(-118.86 -76.41)"/><path class="cls-1" d="M823.77,660.76A45.45,45.45,0,0,1,801.1,700L718,748.21l6.35,10.19,82.78-48a57.48,57.48,0,0,0,28.67-49.64V506h-12Z" transform="translate(-118.86 -76.41)"/><path class="cls-1" d="M801.1,300a45.45,45.45,0,0,1,22.67,39.25V468h12V339.24A57.48,57.48,0,0,0,807.1,289.6l-103.84-60-7.59,9.48Z" transform="translate(-118.86 -76.41)"/><path class="cls-1" d="M839.87,277.6a45.47,45.47,0,0,1,22.67,39.26v85.51l12-.26V316.86a57.5,57.5,0,0,0-28.67-49.65L727.8,199l-7.6,9.47Z" transform="translate(-118.86 -76.41)"/><path class="cls-1" d="M160.13,722.4a45.47,45.47,0,0,1-22.67-39.26V560.53h-12V683.14a57.5,57.5,0,0,0,28.67,49.65l183.64,106,6.93-9.85Z" transform="translate(-118.86 -76.41)"/><path class="cls-1" d="M137.46,316.86a45.47,45.47,0,0,1,22.67-39.26l103.33-59.73-7.61-9.46-101.72,58.8a57.5,57.5,0,0,0-28.67,49.65v46.31h12Z" transform="translate(-118.86 -76.41)"/><path class="cls-1" d="M477.33,94.46a45.5,45.5,0,0,1,45.34,0l187,108,7.59-9.47L528.67,84.07a57.5,57.5,0,0,0-57.34,0L291.25,188.24l7.61,9.46Z" transform="translate(-118.86 -76.41)"/><path class="cls-1" d="M862.54,683.14a45.47,45.47,0,0,1-22.67,39.26L522.67,905.54a45.48,45.48,0,0,1-45.34,0l-51.7-29.71-6.93,9.85,52.63,30.25a57.48,57.48,0,0,0,57.34,0l317.2-183.14a57.5,57.5,0,0,0,28.67-49.65V506h-12Z" transform="translate(-118.86 -76.41)"/><rect class="cls-1" x="6.6" y="298.76" width="12" height="91.11"/><polygon class="cls-1" points="527.46 686.76 539.47 706.03 549.87 700.02 537.86 680.75 527.46 686.76"/><polygon class="cls-1" points="521.11 676.57 527.46 686.76 537.86 680.75 531.51 670.56 521.11 676.57"/><polygon class="cls-1" points="539.47 706.03 545.82 716.22 556.22 710.21 549.87 700.02 539.47 706.03"/><rect class="cls-1" x="716.9" y="417.59" width="26.77" height="12"/><rect class="cls-1" x="704.9" y="417.59" width="12" height="12"/><rect class="cls-1" x="743.67" y="417.59" width="12" height="12"/><polygon class="cls-1" points="562.44 180.62 576.8 162.7 566.29 156.63 551.93 174.54 562.44 180.62"/><polygon class="cls-1" points="549.59 187.05 554.85 190.09 562.44 180.62 551.93 174.54 544.24 183.96 549.59 187.05"/><polygon class="cls-1" points="566.29 156.63 576.8 162.7 584.4 153.23 573.88 147.16 566.29 156.63"/><polygon class="cls-1" points="601.34 132.1 608.93 122.63 598.42 116.56 590.83 126.03 601.34 132.1"/><polygon class="cls-1" points="207.49 136.33 190.51 115.22 180 121.29 196.97 142.4 207.49 136.33"/><polygon class="cls-1" points="166.25 200 151.35 182.4 140.79 188.5 155.69 206.1 166.25 200"/><polygon class="cls-1" points="163.56 215.41 174.13 209.31 166.25 200 155.69 206.1 163.56 215.41"/><polygon class="cls-1" points="151.35 182.4 143.48 173.09 132.92 179.19 140.79 188.5 151.35 182.4"/><polygon class="cls-1" points="435.67 121.28 441.44 110.75 431.04 104.75 425.27 115.27 435.67 121.28"/><rect class="cls-1" x="18.6" y="472.12" width="26.77" height="12"/><rect class="cls-1" x="45.37" y="472.12" width="12" height="12"/><rect class="cls-1" x="6.6" y="472.12" width="12" height="12"/><rect class="cls-1" x="57.37" y="329.39" width="22.69" height="12"/><rect class="cls-1" x="6.6" y="286.76" width="12" height="12"/><polygon class="cls-1" points="175.02 652.23 161.91 670.87 172.34 676.89 185.45 658.25 175.02 652.23"/><polygon class="cls-1" points="181.94 642.38 175.02 652.23 185.45 658.25 192.38 648.4 181.94 642.38"/><polygon class="cls-1" points="161.91 670.87 154.98 680.73 165.41 686.75 172.34 676.89 161.91 670.87"/></g></svg>