<svg id="Layer_1" data-name="Layer 1" xmlns="http://www.w3.org/2000/svg" height="24px" viewBox="0 0 24 24" width="24px" fill="#FFFFFF"><defs><style>.cls-1{fill:none;}.cls-2{fill:#fff;}</style></defs><rect class="cls-1" width="24" height="24"/><polygon class="cls-2" points="19 3.79 15.5 3.79 14.5 2.79 9.5 2.79 8.5 3.79 5 3.79 5 5.79 19 5.79 19 3.79"/><path class="cls-2" d="M6,6.51v12a2,2,0,0,0,2,2h8a2,2,0,0,0,2-2v-12Zm6,12.36a5.55,5.55,0,1,1,5.54-5.55A5.56,5.56,0,0,1,12,18.87ZM12,8.78a4.55,4.55,0,1,0,4.54,4.54A4.55,4.55,0,0,0,12,8.78Zm1.85,6.84L11.14,14V10.29h1.13v3.15l2.18,1.28Z"/></svg>