<svg id="Layer_7" data-name="Layer 7" xmlns="http://www.w3.org/2000/svg" viewBox="0 0 602.15 677.56"><defs><style>.cls-1{fill:#fff;}.cls-2{fill:none;stroke:#fff;stroke-miterlimit:10;stroke-width:12px;}</style></defs><title>KurdspexV2</title><path class="cls-1" d="M769.41,314.82,525.66,174.1a51.31,51.31,0,0,0-51.32,0L230.59,314.82a51.33,51.33,0,0,0-25.66,44.45V640.73a51.33,51.33,0,0,0,25.66,44.45L474.34,825.9a51.31,51.31,0,0,0,51.32,0L769.41,685.18a51.33,51.33,0,0,0,25.66-44.45V359.27A51.33,51.33,0,0,0,769.41,314.82ZM500.6,435.08l52.3-70-22.5-18.82a6.61,6.61,0,0,1,3.06-11.57l115.93-21.18a6.61,6.61,0,0,1,7.8,6.52l-.38,117.86A6.61,6.61,0,0,1,646,442.94l-26.65-22.29L558,505.82a6.61,6.61,0,0,1-10.67.08L500.59,443A6.62,6.62,0,0,1,500.6,435.08ZM659.2,712.67H561.9a6.6,6.6,0,0,1-5.47-2.91l-77.8-114.93a6.61,6.61,0,0,0-12.08,3.42L465,634.75v71.31a6.61,6.61,0,0,1-6.61,6.61H373.92a6.61,6.61,0,0,1-6.61-6.61V293.94a6.61,6.61,0,0,1,6.61-6.61H458.4a6.61,6.61,0,0,1,6.61,6.61V413L664.64,702.31A6.61,6.61,0,0,1,659.2,712.67Z" transform="translate(-198.93 -161.22)"/><path class="cls-2" d="M769.41,314.82,525.66,174.1a51.31,51.31,0,0,0-51.32,0L230.59,314.82a51.33,51.33,0,0,0-25.66,44.45V640.73a51.33,51.33,0,0,0,25.66,44.45L474.34,825.9a51.31,51.31,0,0,0,51.32,0L769.41,685.18a51.33,51.33,0,0,0,25.66-44.45V359.27A51.33,51.33,0,0,0,769.41,314.82Z" transform="translate(-198.93 -161.22)"/></svg>