<?xml version="1.0" encoding="utf-8"?>
<!-- Generator: Adobe Illustrator 23.0.5, SVG Export Plug-In . SVG Version: 6.00 Build 0)  -->
<svg version="1.1" xmlns="http://www.w3.org/2000/svg" xmlns:xlink="http://www.w3.org/1999/xlink" x="0px" y="0px"
	 viewBox="0 0 1000 1000" style="enable-background:new 0 0 1000 1000;" xml:space="preserve">
<style type="text/css">
	.st0{display:none;}
	.st1{display:inline;}
	.st2{display:inline;fill:#FFFFFF;stroke:#FFFFFF;stroke-width:12;stroke-miterlimit:10;}
	.st3{fill:#FFFFFF;}
	.st4{fill:none;stroke:#FFFFFF;stroke-width:12;stroke-miterlimit:10;}
</style>
<g id="Layer_1" class="st0">
	<rect x="-0.71" y="-0.41" class="st1" width="1000" height="1000"/>
</g>
<g id="Layer_6" class="st0">
	<path class="st2" d="M769.41,314.82L525.66,174.1c-15.88-9.17-35.45-9.17-51.33,0L230.59,314.82
		c-15.88,9.17-25.66,26.11-25.66,44.45v281.45c0,18.34,9.78,35.28,25.66,44.45L474.34,825.9c15.88,9.17,35.45,9.17,51.33,0
		l243.74-140.73c15.88-9.17,25.66-26.11,25.66-44.45V359.27C795.07,340.94,785.29,323.99,769.41,314.82z"/>
</g>
<g id="Layer_3" class="st0">
	<path class="st1" d="M465.01,413.02l199.63,289.28c3.03,4.38-0.11,10.36-5.44,10.36h-97.3c-2.19,0-4.24-1.09-5.47-2.9l-77.8-114.94
		c-3.57-5.28-11.81-2.94-12.08,3.43l-1.54,36.5v71.3c0,3.65-2.96,6.61-6.61,6.61h-84.48c-3.65,0-6.61-2.96-6.61-6.61V293.94
		c0-3.65,2.96-6.61,6.61-6.61h84.48c3.65,0,6.61,2.96,6.61,6.61V413.02"/>
	<path class="st1" d="M649.39,313.51l-115.94,21.18c-5.51,1.01-7.35,7.98-3.05,11.57l22.5,18.82l-52.3,70
		c-1.75,2.34-1.75,5.55-0.01,7.9l46.77,62.93c2.67,3.59,8.06,3.55,10.67-0.08l61.28-85.18l26.64,22.29
		c4.29,3.59,10.83,0.55,10.85-5.05l0.38-117.85C657.2,315.9,653.46,312.77,649.39,313.51z"/>
</g>
<g id="Layer_7">
	<g>
		<path class="st3" d="M769.41,314.82L525.66,174.1c-15.88-9.17-35.45-9.17-51.33,0L230.59,314.82
			c-15.88,9.17-25.66,26.11-25.66,44.45v281.45c0,18.34,9.78,35.28,25.66,44.45L474.34,825.9c15.88,9.17,35.45,9.17,51.33,0
			l243.74-140.73c15.88-9.17,25.66-26.11,25.66-44.45V359.27C795.07,340.94,785.29,323.99,769.41,314.82z M500.6,435.08l52.3-70
			l-22.5-18.82c-4.29-3.59-2.46-10.56,3.05-11.57l115.94-21.18c4.07-0.74,7.81,2.39,7.8,6.52l-0.38,117.85
			c-0.02,5.6-6.56,8.64-10.85,5.05l-26.64-22.29l-61.28,85.18c-2.61,3.63-8,3.67-10.67,0.08l-46.77-62.93
			C498.85,440.63,498.85,437.42,500.6,435.08z M659.2,712.67h-97.3c-2.19,0-4.24-1.09-5.47-2.9l-77.8-114.94
			c-3.57-5.28-11.81-2.94-12.08,3.43l-1.54,36.5v71.3c0,3.65-2.96,6.61-6.61,6.61h-84.48c-3.65,0-6.61-2.96-6.61-6.61V293.94
			c0-3.65,2.96-6.61,6.61-6.61h84.48c3.65,0,6.61,2.96,6.61,6.61v119.08l199.63,289.28C667.67,706.69,664.53,712.67,659.2,712.67z"
			/>
		<path class="st0" d="M465.01,413.02V293.94c0-3.65-2.96-6.61-6.61-6.61h-84.48c-3.65,0-6.61,2.96-6.61,6.61v412.12
			c0,3.65,2.96,6.61,6.61,6.61h84.48c3.65,0,6.61-2.96,6.61-6.61v-71.3l1.54-36.5c0.27-6.37,8.5-8.7,12.08-3.43l77.8,114.94
			c1.23,1.82,3.28,2.9,5.47,2.9h97.3c5.33,0,8.47-5.98,5.44-10.36L465.01,413.02z"/>
		<path class="st0" d="M547.36,505.9c2.67,3.59,8.06,3.55,10.67-0.08l61.28-85.18l26.64,22.29c4.29,3.59,10.83,0.55,10.85-5.05
			l0.38-117.85c0.01-4.13-3.73-7.27-7.8-6.52l-115.94,21.18c-5.51,1.01-7.35,7.98-3.05,11.57l22.5,18.82l-52.3,70
			c-1.75,2.34-1.75,5.55-0.01,7.9L547.36,505.9z"/>
	</g>
	<path class="st4" d="M769.41,314.82L525.66,174.1c-15.88-9.17-35.45-9.17-51.33,0L230.59,314.82
		c-15.88,9.17-25.66,26.11-25.66,44.45v281.45c0,18.34,9.78,35.28,25.66,44.45L474.34,825.9c15.88,9.17,35.45,9.17,51.33,0
		l243.74-140.73c15.88-9.17,25.66-26.11,25.66-44.45V359.27C795.07,340.94,785.29,323.99,769.41,314.82z"/>
</g>
<g id="Layer_8">
	<circle class="st3" cx="719.5" cy="753.92" r="12.6"/>
	<circle class="st3" cx="310.87" cy="771.6" r="12.6"/>
	<circle class="st3" cx="170.23" cy="523.93" r="12.6"/>
	<circle class="st3" cx="131.46" cy="467.85" r="12.6"/>
	<circle class="st3" cx="170.23" cy="349.04" r="12.6"/>
	<circle class="st3" cx="259.66" cy="211.51" r="12.6"/>
	<circle class="st3" cx="868.54" cy="401.78" r="12.6"/>
	<circle class="st3" cx="829.77" cy="467.98" r="12.6"/>
	<circle class="st3" cx="654.03" cy="208.51" r="12.6"/>
	<circle class="st3" cx="415.53" cy="876.55" r="12.6"/>
	<circle class="st3" cx="344.7" cy="836.91" r="12.6"/>
</g>
<g id="Layer_5">
	<path class="st3" d="M692.75,223.57"/>
	<path class="st3" d="M789.07,640.73c0,16.14-8.68,31.18-22.67,39.26l-116.04,66.99l6.35,10.19l115.69-66.79
		c17.68-10.21,28.67-29.23,28.67-49.65l-1.28-206.7l-12,0L789.07,640.73z"/>
	<polygon class="st3" points="646.11,250.96 654.03,241.67 560.3,187.17 554.53,197.69 	"/>
	<path class="st3" d="M233.59,679.98c-13.98-8.07-22.67-23.11-22.67-39.26V405.81h-12v234.92c0,20.42,10.98,39.44,28.67,49.65
		l27.33,15.75l6.93-9.86L233.59,679.98z"/>
	<path class="st3" d="M210.93,359.27c0-16.14,8.68-31.18,22.67-39.26l48.84-28.2l-7.88-9.31l-46.96,27.11
		c-17.68,10.21-28.67,29.23-28.67,49.65l0.73,25.21h12L210.93,359.27z"/>
	<path class="st3" d="M477.33,179.29c6.99-4.04,14.83-6.05,22.67-6.05c7.84,0,15.67,2.02,22.67,6.05l21.47,12.4l5.77-10.52
		l-21.24-12.26c-17.68-10.21-39.65-10.21-57.33,0l-164.72,94.98l8.55,8.92L477.33,179.29z"/>
	<path class="st3" d="M766.41,320.02c13.98,8.07,22.67,23.11,22.67,39.26V397l12,0v-37.73c0-20.42-10.98-39.44-28.67-49.65
		l-91.1-52.6l-7.59,9.47L766.41,320.02z"/>
	<path class="st3" d="M522.67,820.71c-13.98,8.07-31.35,8.07-45.33,0l-166.09-95.89l-6.93,9.86l167.02,96.43
		c8.84,5.1,18.75,7.66,28.67,7.66s19.82-2.55,28.67-7.66l86.38-49.57l-6.35-10.19L522.67,820.71z"/>
	<path class="st3" d="M198.9,700.01c-13.98-8.07-22.66-23.11-22.66-39.26V560.53h-12v100.22c0,20.42,10.98,39.44,28.66,49.65
		l80.95,46.73l6.93-9.86L198.9,700.01z"/>
	<rect x="164.23" y="405.81" class="st3" width="12" height="115.79"/>
	<path class="st3" d="M522.67,860.77c-13.98,8.07-31.35,8.07-45.33,0L318.17,769.8l-6.93,9.86l160.09,91.5
		c8.84,5.1,18.75,7.66,28.67,7.66s19.82-2.55,28.67-7.66l136.02-78.53l-6.35-10.19L522.67,860.77z"/>
	<path class="st3" d="M477.33,139.23c6.99-4.04,14.83-6.05,22.67-6.05c7.84,0,15.67,2.02,22.67,6.05l128.12,73.9l7.98-9.25
		l-130.1-75.05c-17.68-10.21-39.65-10.21-57.33,0l-155.48,89.97l7.61,9.46L477.33,139.23z"/>
	<path class="st3" d="M176.23,339.24c0-16.14,8.68-31.19,22.66-39.26l60.76-35.08l-7.88-9.31l-58.88,34
		c-17.68,10.21-28.66,29.23-28.66,49.65v6.18h12V339.24z"/>
	<path class="st3" d="M823.77,660.76c0,16.14-8.68,31.18-22.67,39.26l-83.13,48.2l6.35,10.19l82.78-48
		c17.68-10.21,28.67-29.23,28.67-49.65V506l-12,0V660.76z"/>
	<path class="st3" d="M801.1,299.99c13.98,8.07,22.67,23.11,22.67,39.26v128.73h12V339.24c0-20.42-10.98-39.44-28.67-49.65
		l-103.84-59.95l-7.59,9.47L801.1,299.99z"/>
	<path class="st3" d="M839.87,277.6c13.98,8.07,22.67,23.11,22.67,39.26v85.51l12-0.26v-85.25c0-20.42-10.98-39.44-28.67-49.65
		L727.8,199.04l-7.59,9.47L839.87,277.6z"/>
	<path class="st3" d="M160.13,722.4c-13.98-8.07-22.66-23.11-22.66-39.26V560.53h-12v122.61c0,20.42,10.98,39.44,28.66,49.65
		l183.64,105.96l6.93-9.86L160.13,722.4z"/>
	<path class="st3" d="M137.46,316.86c0-16.14,8.68-31.19,22.66-39.26l103.34-59.73l-7.61-9.46l-101.72,58.81
		c-17.68,10.21-28.66,29.23-28.66,49.65v46.31h12V316.86z"/>
	<path class="st3" d="M477.33,94.46c6.99-4.04,14.83-6.05,22.67-6.05c7.84,0,15.68,2.02,22.67,6.05l187.03,107.98l7.59-9.47
		L528.67,84.07c-17.68-10.21-39.65-10.21-57.33,0L291.25,188.24l7.61,9.46L477.33,94.46z"/>
	<path class="st3" d="M862.54,683.14c0,16.14-8.68,31.18-22.67,39.26L522.67,905.54c-13.98,8.07-31.35,8.07-45.33,0l-51.7-29.71
		l-6.93,9.86l52.63,30.25c8.84,5.1,18.75,7.66,28.67,7.66s19.82-2.55,28.67-7.66l317.21-183.14c17.68-10.21,28.67-29.23,28.67-49.65
		V506l-12,0V683.14z"/>
	<rect x="125.46" y="375.17" class="st3" width="12" height="91.11"/>
	<polygon class="st3" points="646.32,763.17 658.33,782.44 668.73,776.44 656.72,757.17 	"/>
	<polygon class="st3" points="639.97,752.98 646.32,763.17 656.72,757.17 650.37,746.98 	"/>
	<polygon class="st3" points="658.33,782.44 664.68,792.63 675.08,786.63 668.73,776.44 	"/>
	<rect x="835.77" y="494" class="st3" width="26.77" height="12"/>
	<rect x="823.77" y="494" class="st3" width="12" height="12"/>
	<rect x="862.54" y="494" class="st3" width="12" height="12"/>
	<polygon class="st3" points="681.31,257.03 695.67,239.12 685.15,233.05 670.79,250.96 	"/>
	<polygon class="st3" points="668.46,263.47 673.71,266.5 681.31,257.03 670.79,250.96 663.11,260.38 	"/>
	<polygon class="st3" points="685.15,233.05 695.67,239.12 703.26,229.64 692.75,223.57 	"/>
	<polygon class="st3" points="720.2,208.51 727.8,199.04 717.28,192.97 709.69,202.44 	"/>
	<polygon class="st3" points="326.35,212.74 309.37,191.63 298.86,197.7 315.84,218.81 	"/>
	<polygon class="st3" points="285.11,276.42 270.22,258.81 259.66,264.91 274.55,282.51 	"/>
	<polygon class="st3" points="282.43,291.82 292.99,285.73 285.11,276.42 274.55,282.51 	"/>
	<polygon class="st3" points="270.22,258.81 262.34,249.5 251.78,255.6 259.66,264.91 	"/>
	<polygon class="st3" points="554.53,197.69 560.3,187.17 549.91,181.16 544.13,191.69 	"/>
	<rect x="137.46" y="548.53" class="st3" width="26.77" height="12"/>
	<rect x="164.23" y="548.53" class="st3" width="12" height="12"/>
	<rect x="125.46" y="548.53" class="st3" width="12" height="12"/>
	<rect x="176.23" y="405.81" class="st3" width="22.69" height="12"/>
	<rect x="125.46" y="363.17" class="st3" width="12" height="12"/>
	<polygon class="st3" points="293.88,728.65 280.77,747.28 291.21,753.31 304.31,734.67 	"/>
	<polygon class="st3" points="300.81,718.79 293.88,728.65 304.31,734.67 311.24,724.81 	"/>
	<polygon class="st3" points="280.77,747.28 273.84,757.14 284.28,763.16 291.21,753.31 	"/>
</g>
</svg>
