<svg xmlns="http://www.w3.org/2000/svg" height="24px" viewBox="0 0 1080 1054.61" width="24px" fill="#FFFFFF"><path class="cls-1" d="M552.57,928.35c-13.14,0-26.31.39-39.43-.1-16.13-.61-24-8.55-24.47-24.75-.47-17.67-.52-35.37,0-53,.26-8.8-2.49-12.43-11.58-14.37C424.63,824.88,378,801.94,339,764.6c-17.23-16.49-17.12-26.72.17-43.18s34.79-33.15,52.36-49.53c12.74-11.89,22.87-11.77,35.72-.44,46.61,41.11,100.5,51,159.79,36.64a81.2,81.2,0,0,0,20-8.17c24-13.4,26-43.5,3-58.95-12.23-8.21-26.33-14.07-40.23-19.26C525,605,478.71,591.44,435,572.15c-48.87-21.56-83.79-58.35-97.25-112C313.83,365,361.4,282.43,457.54,251.51c1.29-.41,2.62-.74,3.91-1.14,27.07-8.48,27.06-8.48,27.07-37.82,0-12.24-.33-24.49.16-36.72.61-15.41,8.36-23.61,23.76-23.92q40.11-.81,80.24,0c16,.32,23.81,8.7,24.2,25q.69,27.86,0,55.75c-.22,8.19,2.6,11,10.62,13.84,28.07,9.83,56.16,20,83.09,32.56,20.7,9.63,22.58,21.65,10.41,40.7q-19,29.77-38.36,59.35c-11.28,17.25-20,18.9-38.75,9.21-47.19-24.39-96.53-29.69-147.54-14.45-17.34,5.17-33.72,13.23-36,34.23-2.53,23.17,8.35,40.21,29.16,48.76,28.4,11.66,57.94,20.51,86.58,31.62,32,12.41,65,23.21,94.9,39.66,60.76,33.47,87.21,87.89,82.37,156.4-4.57,64.57-41.21,107.38-98,134.73-6.91,3.33-14.07,7.37-21.45,8.28-15.74,1.94-17.95,11-17.15,24.46,1,16.71.53,33.54.13,50.31-.41,17.55-8.56,25.31-26.26,26-.9,0-1.81,0-2.72,0H552.57Z" transform="translate(0 -12.69)"/><path class="cls-1" d="M1054.13,554.6,955,658.9l42,11.67C923,937.06,640.08,1090.45,374.37,1003,137.05,925-3.84,675.59,51.73,432c60.8-266.48,327-428.37,587.8-366.52a19.73,19.73,0,0,0,23.48-14h0A19.93,19.93,0,0,0,648.3,26.83C366.44-39.8,78.8,135.21,13.08,423.22c-60.11,263.37,92.24,533,348.84,617.45,287.31,94.54,593.23-71.32,673.32-359.48L1080,693.63Z" transform="translate(0 -12.69)"/><path class="cls-1" d="M1004.5,339.3a65.61,65.61,0,0,1-.55,131.21c-36.15-.09-65.5-29.8-65.32-66.11C938.8,368.45,968.4,339.2,1004.5,339.3Zm-7.57,14.79c0,4.12-.16,8,.06,11.93.14,2.55-.76,3.6-3.16,4.56-12.07,4.85-18.68,14.91-18.76,28,0,3.95,0,7.9,0,11.85-.07,14,6.37,23.6,19.18,29.18a5.34,5.34,0,0,1,2.57,3.82c.34,4,.12,8.1.12,12.24h14.58a93.52,93.52,0,0,0-.07-9.8c-.41-3.84.76-5.77,4.61-7.31,10.76-4.3,18-15.94,16.83-26.09H1019c-.13.68-.21,1.13-.31,1.57-1.92,8.53-8.45,13.62-16.22,12.68-7.61-.93-12.78-7.21-12.84-15.68,0-4.7-.15-9.42.06-14.12a14.5,14.5,0,0,1,28.33-3.67c.45,1.39.78,2.82,1.11,4h14.06a28.31,28.31,0,0,0-18.44-26.6c-2.63-1-3.44-2.28-3.31-4.92.2-3.87,0-7.76,0-11.65Z" transform="translate(0 -12.69)"/><path class="cls-1" d="M993.23,245.61a63.15,63.15,0,1,1-63-63.13A63.28,63.28,0,0,1,993.23,245.61ZM895,294.44h62.92V280.59H914c7.63-8.33,9.62-17.69,9.15-28.16h13.73v-14H923.07V228.41c0-10.67,4.21-16.76,12.3-17.78,7.85-1,13.48,3.75,16.22,13.68h13.84a80,80,0,0,0-1.58-8,28,28,0,0,0-54.77,7.43c-.13,4.9,0,9.81,0,15H895.29v14.09h13.54C910,263.41,906.48,271,897,275.51a4.43,4.43,0,0,0-1.92,3.31C894.89,283.92,895,289,895,294.44Z" transform="translate(0 -12.69)"/><path class="cls-1" d="M801.34,65.41A63.16,63.16,0,1,1,738,128.17,63.26,63.26,0,0,1,801.34,65.41Zm27.71,42a27.81,27.81,0,0,0-24.24-27.68A26.81,26.81,0,0,0,786,84c-8.41,5.47-12.35,13.61-13.1,23.65H759.34v14.11h13.54v13.95H759.41v14.06h13.34c3.08,19,16,30.07,32,27.76,14.18-2.05,25.47-15,24-27.63H815.44c-2,9.51-8.09,14.68-16,13.7a13.5,13.5,0,0,1-11.89-14.1h13.23V135.4H787.45v-14H800.9V107.39H787.31c.6-7.88,5.59-13.22,12.56-13.86,7.74-.71,13.08,3.93,15.82,13.83Z" transform="translate(0 -12.69)"/></svg>