<svg xmlns="http://www.w3.org/2000/svg" viewBox="0 0 7086.61 8503.94"><defs><style>.cls-1{fill:#fff;}.cls-2{fill:#bb579d;}.cls-3,.cls-4,.cls-5{fill:none;}.cls-3,.cls-4{stroke:#bb579d;stroke-miterlimit:10;}.cls-4{stroke-width:9px;}</style></defs><g id="Layer_2" data-name="Layer 2"><path class="cls-1" d="M4784,3892.6c-90.38,242.55-333.45,744-658,1109.75-58.63,70.08-142.49,161.75-274.91,197.12-196.48,52.49-382.2-50.4-484.73-110.65-333.63-196.06-956.65-628.37-1734.49-1227.37C2024,2919.83,2445.3,1954.22,2837.47,1012.6c27.28-275.71,45.44-524.43,52.73-803.13C3263.48,283,3779.69,460.08,4234.06,893.62c91.92,96,361.82,296.17,727.15,1164.26C5167,2593,5022.49,3148.6,4922.4,3516.26"/></g><g id="Layer_1" data-name="Layer 1"><path class="cls-2" d="M1299.59,499.25C984.87,835.7,816.75,1092.65,735,1235.32c-30.59,53.38-54.62,99.83-57.42,105.26-51.77,100.34-130.33,268.55-224.88,607.65-57.5,206.24-105.28,377.59-138.76,622-35.24,257.36-34.65,449.87-33.49,617.23,1.78,255.4,22,404.71,62.2,550.24,10.86,39.36,75.54,273.81,124.4,267.94,37.39-4.48,34.26-145.89,62.21-325.36,46.9-301.17,152-521.14,287.08-803.82,124.91-261.42,156.11-258.87,248.8-488,63.45-156.86,101.25-287.64,153.11-468.9,73.35-256.35,110-384.52,134-531.1,42.64-261,53.74-517.26-23.92-818.19-17-65.92-18.54-76.15-28.73-71"/><path class="cls-3" d="M1299.59,499.25C984.87,835.7,816.75,1092.65,735,1235.32c-30.59,53.38-54.62,99.83-57.42,105.26-51.77,100.34-130.33,268.55-224.88,607.65-57.5,206.24-105.28,377.59-138.76,622-35.24,257.36-34.65,449.87-33.49,617.23,1.78,255.4,22,404.71,62.2,550.24,10.86,39.36,75.54,273.81,124.4,267.94,37.39-4.48,34.26-145.89,62.21-325.36,46.9-301.17,152-521.14,287.08-803.82,124.91-261.42,156.11-258.87,248.8-488,63.45-156.86,101.25-287.64,153.11-468.9,73.35-256.35,110-384.52,134-531.1,42.64-261,53.74-517.26-23.92-818.19-17-65.92-18.54-76.15-28.73-71"/><path class="cls-2" d="M1477.92,5784.44c-24-58.91-51-123.42-51-123.42-52.54-125.17-67.68-154.49-135.61-333.52-60.72-160-102.67-291.15-124.42-368.42-8.67-30.88-47.94-323.69-59.79-519.14-9.9-163-13.28-206.18-12.07-242.12,1-30.46,4.89-61.71,4.89-61.71,2.54-24.77,8.39-75.07,22.6-143.66,13.19-63.64,26.63-109.46,44-168.07,7.31-24.7,28.37-94.9,61.83-189.07,25.61-72.09,49.23-138.11,87.31-222.67,14.45-32.08,31.53-68,59.53-122.4C1445.87,3153,1502.44,3061,1547.29,2984.6c84.76-144.39,143-259.25,177.36-327,74.28-146.52,57-111.16,215-468.81,104.87-237.45,104.21-237.76,162.67-416.27,89-271.85,90.93-293.22,181.82-571,78.4-239.5,87.45-264.26,118-398.73,28.92-127.1,35.1-172.24,67.13-304.67,25.95-107.31,11.08-164.58-3.32-232.81-22.13-104.73-148.08-154.75-156.31-157.89-102.79-39.22-198.59-2.48-338.11,51C1850.23,205,1784,230.36,1735.49,295.6c-73.63,99-44.88,218.88-44.66,331.74.41,209.9-4,407.43-38.28,638-56.85,382.35-131.89,626-239.23,941-68.65,201.42-45.46,147.52-483.25,992-48.47,93.48-102.31,229-172.25,435.41-33.83,99.86-82.2,277-95.69,488-25.84,404.29,103.42,734.56,177,889.95,137,289.1,117.23,258.38,382.78,622,130.68,179,197.9,384.52,222.48,488,54.56,229.8,49.06,325.73,55,468.9,14,337-57.42,593.3-57.43,593.3-14.64,52.58-44.23,147.77-23.91,157.9,16.79,8.36,59.68-45.56,86.12-81.34,44.32-60,70.41-114.17,83-145,27.31-67,37-121.63,43-156.42,9.92-57.68,7.48-78.08,16-213.71,5.19-83,7.52-98.23,9.57-134,9-158-11.94-290.94-19.14-334.92-27.91-170.92-80.78-300.73-158.68-492"/><path class="cls-3" d="M1477.92,5784.44c-24-58.91-51-123.42-51-123.42-52.54-125.17-67.68-154.49-135.61-333.52-60.72-160-102.67-291.15-124.42-368.42-8.67-30.88-47.94-323.69-59.79-519.14-9.9-163-13.28-206.18-12.07-242.12,1-30.46,4.89-61.71,4.89-61.71,2.54-24.77,8.39-75.07,22.6-143.66,13.19-63.64,26.63-109.46,44-168.07,7.31-24.7,28.37-94.9,61.83-189.07,25.61-72.09,49.23-138.11,87.31-222.67,14.45-32.08,31.53-68,59.53-122.4C1445.87,3153,1502.44,3061,1547.29,2984.6c84.76-144.39,143-259.25,177.36-327,74.28-146.52,57-111.16,215-468.81,104.87-237.45,104.21-237.76,162.67-416.27,89-271.85,90.93-293.22,181.82-571,78.4-239.5,87.45-264.26,118-398.73,28.92-127.1,35.1-172.24,67.13-304.67,25.95-107.31,11.08-164.58-3.32-232.81-22.13-104.73-148.08-154.75-156.31-157.89-102.79-39.22-198.59-2.48-338.11,51C1850.23,205,1784,230.36,1735.49,295.6c-73.63,99-44.88,218.88-44.66,331.74.41,209.9-4,407.43-38.28,638-56.85,382.35-131.89,626-239.23,941-68.65,201.42-45.46,147.52-483.25,992-48.47,93.48-102.31,229-172.25,435.41-33.83,99.86-82.2,277-95.69,488-25.84,404.29,103.42,734.56,177,889.95,137,289.1,117.23,258.38,382.78,622,130.68,179,197.9,384.52,222.48,488,54.56,229.8,49.06,325.73,55,468.9,14,337-57.42,593.3-57.43,593.3-14.64,52.58-44.23,147.77-23.91,157.9,16.79,8.36,59.68-45.56,86.12-81.34,44.32-60,70.41-114.17,83-145,27.31-67,37-121.63,43-156.42,9.92-57.68,7.48-78.08,16-213.71,5.19-83,7.52-98.23,9.57-134,9-158-11.94-290.94-19.14-334.92C1608.69,6105.55,1555.82,5975.74,1477.92,5784.44Z"/><path class="cls-2" d="M2890.2,209.47c-12.93-.47-7.31,230.25-57.42,513.56-51.8,292.87-137.61,497.48-306.22,899.52-59.63,142.2-143.22,340.36-274.32,596.49-70.68,138.1-92.72,171-478.47,835.73-133,229.27-236.51,409.33-334.93,666.67-60.3,157.66-90.19,269.78-105.26,392.34-24.35,198.06-1,350.53,16,456.14,59.31,369.39,208.44,627.4,239.23,679.43,26.24,44.34,6.44,6.5,401.92,516.75,53.71,69.3,164.1,212.95,271.13,411.48,47.86,88.78,80.38,161.3,105.26,248.8,39,137.27,41.24,247.8,41.47,274.33,2,230.28-88.95,406.24-165.87,555-84.05,162.58-125.53,183.31-213.72,376.4-53.9,118-80.86,177.05-92.5,252-41,263.58,105.16,503.08,124.4,497.61,6.81-1.94-3.54-34.14-12.76-165.87-8.45-120.8-12.68-181.2-6.38-239.24,5.06-46.59,21.29-196,121.22-293.46,88.55-86.34,163.42-54.43,315.79-118,10-4.19,206.73-88.83,331.74-266.35,145-205.95,37.33-315.06,191.38-588.51,66.59-118.2,91.68-106.65,201-287.09,46.83-77.32,115.61-192.1,172.25-344.49,55-147.89,120.13-323.25,100.48-555-20.92-246.64-126.16-418.79-155.77-464.79-83.84-130.3-177.36-203.24-361-343.82C2896.47,4667.35,2772,4575,2485.1,4399.27c-385.25-235.89-517.24-287.52-545.46-430.62-10.89-55.21,5.5-116.56,38.28-239.24,51-191,30.19-117.67,119.5-355.65,32.09-85.5,55.33-150,71-194.76,36.77-105.05,36.57-114.3,82.43-249.2,41.3-121.49,38.58-106.05,58.37-168.86,27.36-86.8,35.17-124.58,65.83-208.56,13.18-36.12,15.1-38.36,38.28-98.09,22-56.73,38.58-101.91,75-203.35,70-195.18,134.69-379.62,165.86-510.36h0c19.07-77.06,41.78-175.16,92.5-306.22,62.07-160.37,94.49-241.49,162.68-287.08,41.15-27.52,73.91-33.19,277.51-122.81,3.3-1.45,34.22-15.27,70.18-41.46,20.75-15.12,86-62.69,76.55-87.72-7.87-20.79-64-17.39-87.72-15.95-21.54,1.3-70.11,6.45-151.51,44.65-38.09,17.88-45.2,25.08-124.41,65.39-65.78,33.49-84.33,40.46-97.28,31.9-15.18-10-14.95-36.25-8.85-94.74,7-66.95,14.5-91.81,23.49-163.18,4.37-34.74,6.16-60.05,9.28-104.12.28-4,4.86-69.67,6.38-135.57,2.45-106.55-.83-313.76-12.76-314.19"/><path class="cls-3" d="M2890.2,209.47c-12.93-.47-7.31,230.25-57.42,513.56-51.8,292.87-137.61,497.48-306.22,899.52-59.63,142.2-143.22,340.36-274.32,596.49-70.68,138.1-92.72,171-478.47,835.73-133,229.27-236.51,409.33-334.93,666.67-60.3,157.66-90.19,269.78-105.26,392.34-24.35,198.06-1,350.53,16,456.14,59.31,369.39,208.44,627.4,239.23,679.43,26.24,44.34,6.44,6.5,401.92,516.75,53.71,69.3,164.1,212.95,271.13,411.48,47.86,88.78,80.38,161.3,105.26,248.8,39,137.27,41.24,247.8,41.47,274.33,2,230.28-88.95,406.24-165.87,555-84.05,162.58-125.53,183.31-213.72,376.4-53.9,118-80.86,177.05-92.5,252-41,263.58,105.16,503.08,124.4,497.61,6.81-1.94-3.54-34.14-12.76-165.87-8.45-120.8-12.68-181.2-6.38-239.24,5.06-46.59,21.29-196,121.22-293.46,88.55-86.34,163.42-54.43,315.79-118,10-4.19,206.73-88.83,331.74-266.35,145-205.95,37.33-315.06,191.38-588.51,66.59-118.2,91.68-106.65,201-287.09,46.83-77.32,115.61-192.1,172.25-344.49,55-147.89,120.13-323.25,100.48-555-20.92-246.64-126.16-418.79-155.77-464.79-83.84-130.3-177.36-203.24-361-343.82C2896.47,4667.35,2772,4575,2485.1,4399.27c-385.25-235.89-517.24-287.52-545.46-430.62-10.89-55.21,5.5-116.56,38.28-239.24,51-191,30.19-117.67,119.5-355.65,32.09-85.5,55.33-150,71-194.76,36.77-105.05,36.57-114.3,82.43-249.2,41.3-121.49,38.58-106.05,58.37-168.86,27.36-86.8,35.17-124.58,65.83-208.56,13.18-36.12,15.1-38.36,38.28-98.09,22-56.73,38.58-101.91,75-203.35,70-195.18,134.69-379.62,165.86-510.36h0c19.07-77.06,41.78-175.16,92.5-306.22,62.07-160.37,94.49-241.49,162.68-287.08,41.15-27.52,73.91-33.19,277.51-122.81,3.3-1.45,34.22-15.27,70.18-41.46,20.75-15.12,86-62.69,76.55-87.72-7.87-20.79-64-17.39-87.72-15.95-21.54,1.3-70.11,6.45-151.51,44.65-38.09,17.88-45.2,25.08-124.41,65.39-65.78,33.49-84.33,40.46-97.28,31.9-15.18-10-14.95-36.25-8.85-94.74,7-66.95,14.5-91.81,23.49-163.18,4.37-34.74,6.16-60.05,9.28-104.12.28-4,4.86-69.67,6.38-135.57C2905.41,417.11,2902.13,209.9,2890.2,209.47Z"/><path class="cls-4" d="M3190,4962.27c35.34,37.43,249.29,185,363.64,223.29,26.57,8.9,204.61,65.65,386-16,83.76-37.69,154.8-125.59,293.46-299.84,140.57-176.66,225.2-314.17,245.62-347.69,94.66-155.41,153.05-281.83,175.44-331.74,32.91-73.4,113.34-254.35,131.81-304.79"/><path class="cls-2" d="M3910.93,3877.73c-169.21,20.34-305,20.4-401.91,15.95-101-4.64-164-14.19-220.1,28.71-74.91,57.27-52.29,143.15-127.59,178.63-61.4,28.92-105.5-14.48-172.25,22.32-42.62,23.5-62.5,62.06-76.56,89.32-73,141.58-13.07,314,3.19,357.26a858.52,858.52,0,0,0,207.34,70.17c89.26,17.84,271.74,54.3,334.93-28.71,27.23-35.77,18.22-75.23,60.61-105.26,32.78-23.23,63.53-17.58,92.5-22.33,95.19-15.59,151.06-140.09,204.15-258.37,33.86-75.46,77-193.21,95.69-347.69"/><path class="cls-3" d="M3910.93,3877.73c-169.21,20.34-305,20.4-401.91,15.95-101-4.64-164-14.19-220.1,28.71-74.91,57.27-52.29,143.15-127.59,178.63-61.4,28.92-105.5-14.48-172.25,22.32-42.62,23.5-62.5,62.06-76.56,89.32-73,141.58-13.07,314,3.19,357.26a858.52,858.52,0,0,0,207.34,70.17c89.26,17.84,271.74,54.3,334.93-28.71,27.23-35.77,18.22-75.23,60.61-105.26,32.78-23.23,63.53-17.58,92.5-22.33,95.19-15.59,151.06-140.09,204.15-258.37C3849.1,4150,3892.23,4032.21,3910.93,3877.73Z"/><path class="cls-2" d="M2724.33,2138.5c3.28-13.48,146.84,46.59,315.79,0,113.43-31.28,189.44-97.21,245.61-145.93,42.83-37.15,134-117.76,197-248.81,101.72-211.55,68.79-427.51,122-433,14.2-1.47,39.26,20.66,43.07,23.92,17.2,14.75,26.16,30.82,30.86,39.41a181.72,181.72,0,0,1,16.36,44.28c27.59,123.91,3,246.45,3,246.45-5.25,26.19-26.67,125-95.7,236.85-34.34,55.66-90.48,144.48-200.16,215.31-83,53.59-158.33,72.17-197,81.34-24.21,5.74-134.59,31.43-279.9,7.18-111.22-18.57-203.28-57.44-201-67"/><path class="cls-3" d="M2724.33,2138.5c3.28-13.48,146.84,46.59,315.79,0,113.43-31.28,189.44-97.21,245.61-145.93,42.83-37.15,134-117.76,197-248.81,101.72-211.55,68.79-427.51,122-433,14.2-1.47,39.26,20.66,43.07,23.92,17.2,14.75,26.16,30.82,30.86,39.41a181.72,181.72,0,0,1,16.36,44.28c27.59,123.91,3,246.45,3,246.45-5.25,26.19-26.67,125-95.7,236.85-34.34,55.66-90.48,144.48-200.16,215.31-83,53.59-158.33,72.17-197,81.34-24.21,5.74-134.59,31.43-279.9,7.18C2814.07,2186.92,2722,2148.05,2724.33,2138.5Z"/><path class="cls-2" d="M3249.71,3158.83c5.67,85.52-16.95,172-66.47,242.26-42.68,60.57-104.36,106.41-172.93,133.77a394.41,394.41,0,0,1-58.81,18.48c-7.53,1.7-4.34,13.28,3.19,11.57,48.88-11.08,96.11-31.93,137.74-59.7,78.73-52.51,135.93-132.49,158.62-224.6a400.3,400.3,0,0,0,10.66-121.78c-.51-7.67-12.51-7.72-12,0"/><path class="cls-2" d="M2698.32,3717.72a413.26,413.26,0,0,1-122.25,67.8c-48,16.59-101.12,32.77-151.1,15.18-28.54-10-53.12-31.65-72.53-55.13-26-31.46-46.84-69-58.27-108.27-9.29-31.92-12-65.07-14.69-98.06-3.62-45.24-8.08-90.31-16-135-17-96-47-189.4-86.94-278.24A1361,1361,0,0,0,2063,2921.58q-7.65-11.29-15.53-22.42c-4.43-6.25-14.84-.27-10.37,6.05,45.94,64.85,85.58,134.15,119.47,206,40.63,86.14,71.5,177,90.41,270.35,9.61,47.44,15.47,95.32,19.38,143.53,2.79,34.48,4.81,69.35,13,103.09,9.32,38.49,27.31,74.6,50.11,106.84,21,29.73,47.68,57.88,81.49,72.88a148.28,148.28,0,0,0,50.93,12.32c28.52,1.8,56.77-4.66,84-12.65,26.27-7.72,52.08-16.5,76.83-28.28a421.31,421.31,0,0,0,60.34-35.2c8.14-5.7,16.07-11.69,23.84-17.89,6-4.82-2.51-13.26-8.49-8.49"/><path class="cls-2" d="M3696.33,1534.18l63.7,0,101.09,0h23.5c11.58,0,11.6-18,0-18l-63.7,0-101.09,0h-23.5c-11.58,0-11.6,18,0,18"/><path class="cls-2" d="M3694,1644.78l61.17,9.31,97.69,14.88,22.69,3.45c4.8.73,9.67-1.21,11.07-6.28,1.17-4.26-1.45-10.34-6.29-11.07l-61.17-9.32-97.69-14.87-22.68-3.46c-4.8-.73-9.68,1.21-11.08,6.29-1.17,4.26,1.46,10.33,6.29,11.07"/><path class="cls-2" d="M3681.52,1729.48l57.28,17.39,91.47,27.77,21.24,6.44c11.11,3.37,15.85-14,4.78-17.36L3799,1746.34l-91.47-27.77-21.23-6.45c-11.11-3.37-15.86,14-4.79,17.36"/><path class="cls-2" d="M3643.31,1824.06l58.27,28.73,93,45.87,21.53,10.62c10.36,5.1,19.49-10.42,9.09-15.55L3767,1865l-93-45.86-21.54-10.62c-10.35-5.11-19.48,10.41-9.08,15.54"/><path class="cls-2" d="M3587.47,1903.05l59.62,42.5,95.48,68.07,21.8,15.53c4,2.83,10,.7,12.31-3.22,2.64-4.52.74-9.49-3.23-12.32l-59.62-42.5-95.48-68.06-21.8-15.54c-4-2.83-10-.7-12.31,3.23-2.64,4.52-.74,9.48,3.23,12.31"/><path class="cls-2" d="M3536.48,1980.38l56.05,50.82,88.83,80.55,20.37,18.47c8.57,7.77,21.34-4.92,12.73-12.72l-56-50.82-88.84-80.55-20.37-18.48c-8.57-7.76-21.33,4.93-12.73,12.73"/><path class="cls-2" d="M3478.92,2058l47.57,53.63,75.12,84.7L3619.1,2216c7.7,8.68,20.39-4.09,12.73-12.73q-23.79-26.82-47.57-53.63l-75.12-84.7-17.49-19.72c-7.7-8.68-20.4,4.09-12.73,12.73"/><path class="cls-2" d="M3405.57,2107.14l41,65,64.77,102.62,15,23.84c6.17,9.77,21.75.75,15.54-9.09l-41-64.95-64.77-102.62-15-23.84c-6.16-9.77-21.75-.74-15.54,9.09"/><path class="cls-2" d="M3331.55,2151.91l34.24,66q27.32,52.66,54.64,105.32l12.63,24.36c5.34,10.29,20.88,1.19,15.54-9.09l-34.23-66q-27.33-52.66-54.64-105.33l-12.64-24.35c-5.33-10.29-20.87-1.2-15.54,9.08"/><path class="cls-2" d="M3233.21,2181.89l31.61,67.38q25,53.4,50.11,106.82l11.52,24.57c2.07,4.4,8.39,5.52,12.32,3.23,4.51-2.64,5.3-7.9,3.23-12.3l-31.61-67.39-50.11-106.83-11.53-24.57c-2.06-4.4-8.39-5.52-12.31-3.22-4.51,2.63-5.3,7.89-3.23,12.31"/><path class="cls-2" d="M3143.61,2196.45l20.76,70.33q16.46,55.77,32.92,111.55l7.59,25.72c3.27,11.09,20.65,6.37,17.36-4.78l-20.76-70.33-32.92-111.55-7.59-25.73c-3.27-11.08-20.65-6.36-17.36,4.79"/><rect class="cls-5" width="7086.61" height="8503.94"/></g></svg>